<svg width="19" height="19" viewBox="0 0 19 19" fill="none" xmlns="http://www.w3.org/2000/svg">
<path fill-rule="evenodd" clip-rule="evenodd" d="M16.3 10.35H12.05C11.1111 10.35 10.35 11.1111 10.35 12.05V16.3C10.35 17.2389 11.1111 18 12.05 18H16.3C17.2389 18 18 17.2389 18 16.3V12.05C18 11.1111 17.2389 10.35 16.3 10.35ZM12.05 16.3V12.05H16.3V16.3H12.05ZM8.65 2.7V16.3C8.65 17.2389 7.88888 18 6.95 18H2.7C1.76112 18 1 17.2389 1 16.3V2.7C1 1.76112 1.76112 1 2.7 1H6.95C7.88888 1 8.65 1.76112 8.65 2.7ZM6.94995 2.7H2.69995V16.3H6.94995V2.7ZM16.3 1H12.05C11.1111 1 10.35 1.76112 10.35 2.7V6.95C10.35 7.88888 11.1111 8.65 12.05 8.65H16.3C17.2389 8.65 18 7.88888 18 6.95V2.7C18 1.76112 17.2389 1 16.3 1ZM12.05 6.95V2.7H16.3V6.95H12.05Z" fill="#F7F7FF"/>
</svg>
