<svg width="24" height="24" viewBox="0 0 24 24" fill="none" xmlns="http://www.w3.org/2000/svg">
<path fill-rule="evenodd" clip-rule="evenodd" d="M17.34 9.95469C17.34 5.8142 15.0567 2.94048 12.1024 2.07788C11.9954 1.80121 11.8264 1.54401 11.5967 1.32818C10.8115 0.590476 9.5881 0.590476 8.80295 1.32818C8.57371 1.54356 8.40491 1.80015 8.2979 2.07617C5.34 2.93515 3.06 5.80252 3.06 9.95469C3.06 12.6413 2.51836 14.1467 1.51568 15.2376C1.34805 15.42 0.893913 15.8378 0.586242 16.1208L0.586159 16.1209L0.586142 16.1209C0.440582 16.2548 0.327821 16.3585 0.293724 16.3929L0 16.6907V20.1691H6.20941C6.41931 21.2526 7.00711 21.9774 8.07019 22.6262C9.37778 23.4241 11.0217 23.4241 12.3293 22.6262C13.2675 22.0536 13.8966 21.1737 14.1517 20.1691H20.4V16.6907L20.1063 16.3929C20.0754 16.3615 19.9672 16.2617 19.8258 16.1313C19.519 15.8483 19.0559 15.4211 18.8857 15.2352C17.8823 14.1391 17.34 12.6318 17.34 9.95469ZM11.9714 20.1691H8.34172C8.4858 20.4373 8.73147 20.6399 9.13285 20.8848C9.78794 21.2846 10.6116 21.2846 11.2667 20.8848C11.5702 20.6996 11.8073 20.4545 11.9714 20.1691ZM17.3812 16.6129C17.5958 16.8473 18.0559 17.2759 18.3602 17.5559V18.1293H2.04023V17.5563C2.34223 17.2797 2.80364 16.8514 3.01789 16.6183C4.38034 15.1359 5.10023 13.1351 5.10023 9.95493C5.10023 6.09922 7.47966 3.84756 10.2002 3.84756C12.9131 3.84756 15.3002 6.11084 15.3002 9.95493C15.3002 13.1249 16.0204 15.1263 17.3812 16.6129Z" fill="#081A3E"/>
<circle cx="20.4" cy="18.7748" r="3.6" fill="#EA3C53"/>
</svg>
