<svg width="24" height="24" viewBox="0 0 24 24" fill="none" xmlns="http://www.w3.org/2000/svg">
<path fill-rule="evenodd" clip-rule="evenodd" d="M19.2616 21.7068L21.6805 19.288L20.8286 16.1931L21.1997 15.3067L24.0006 13.7263V10.3057L21.2077 8.71865L20.8427 7.83382L21.7053 4.73733L19.2848 2.32029L16.1896 3.17194L15.3052 2.80112L13.7246 0H10.304L8.717 2.7929L7.83237 3.15774L4.73638 2.29408L2.3196 4.71086L3.17139 7.80655L2.80057 8.69096L-0.000549316 10.2715V13.6911L2.78984 15.2817L3.15507 16.1673L2.29261 19.2633L4.71031 21.681L7.806 20.8292L8.69051 21.2L10.2711 24H13.6908L15.2802 21.2095L16.1656 20.8444L19.2616 21.7068ZM19.4759 13.774L18.5248 16.0456L19.2397 18.643L18.6196 19.2631L16.0278 18.541L13.7552 19.4783L12.4225 21.8181H11.5449L10.2232 19.4768L7.95415 18.5254L5.35539 19.2405L4.73634 18.6214L5.45836 16.0295L4.52119 13.7572L2.18128 12.4234V11.5457L4.52368 10.224L5.4751 7.95481L4.76004 5.35605L5.3778 4.73829L7.96965 5.46132L10.243 4.52375L11.5737 2.18195H12.4504L13.7721 4.52434L16.0413 5.47577L18.6405 4.76056L19.2611 5.38027L18.5393 7.97162L19.4767 10.2447L21.8185 11.5754V12.4522L19.4759 13.774ZM11.9999 16.3643C9.58979 16.3643 7.63603 14.4106 7.63603 12.0005C7.63603 9.59042 9.58979 7.63666 11.9999 7.63666C14.4099 7.63666 16.3637 9.59042 16.3637 12.0005C16.3637 14.4106 14.4099 16.3643 11.9999 16.3643ZM14.1822 12.0005C14.1822 13.2056 13.2053 14.1824 12.0003 14.1824C10.7952 14.1824 9.81836 13.2056 9.81836 12.0005C9.81836 10.7955 10.7952 9.81861 12.0003 9.81861C13.2053 9.81861 14.1822 10.7955 14.1822 12.0005Z" fill="#081A3E"/>
</svg>
